<svg xmlns="http://www.w3.org/2000/svg" viewBox="0 0 12 12"><title>fondo</title><circle cx="4.41" cy="7.59" r="0.47" fill="red"/><circle cx="1.6" cy="10.4" r="0.47" fill="red"/><polygon points="0 11.75 0.25 12 0.52 12 0 11.48 0 11.75" fill="red"/><polygon points="0 10.63 1.37 12 1.64 12 0 10.36 0 10.63" fill="red"/><polygon points="0 7.25 4.75 12 5.01 12 0 6.99 0 7.25" fill="red"/><circle cx="7.59" cy="7.59" r="0.47" fill="red"/><circle cx="10.4" cy="10.4" r="0.47" fill="red"/><polygon points="11.75 12 12 11.75 12 11.48 11.48 12 11.75 12" fill="red"/><polygon points="10.63 12 12 10.63 12 10.36 10.36 12 10.63 12" fill="red"/><polygon points="7.25 12 12 7.25 12 6.99 6.99 12 7.25 12" fill="red"/><circle cx="7.59" cy="4.41" r="0.47" fill="red"/><path d="M6,4.37,4.37,6,6,7.63,7.63,6Zm0,3L4.63,6,6,4.63,7.37,6Z" fill="red"/><circle cx="10.4" cy="1.6" r="0.47" fill="red"/><path d="M6,0H5.87L0,5.87V6H0v.13L5.87,12h.26L12,6.13V6h0V5.87L6.13,0ZM6,11.87.13,6,6,.13,11.87,6Z" fill="red"/><polygon points="11.75 0 11.48 0 12 0.52 12 0.25 11.75 0" fill="red"/><polygon points="10.36 0 12 1.64 12 1.37 10.63 0 10.36 0" fill="red"/><polygon points="6.99 0 12 5.01 12 4.75 7.25 0 6.99 0" fill="red"/><circle cx="4.41" cy="4.41" r="0.47" fill="red"/><path d="M1,6l5,5,5-5L6,1Zm9.75,0L6,10.74,1.26,6,6,1.26Z" fill="red"/><path d="M5.49,6,6,6.51,6.51,6,6,5.49Zm.75,0L6,6.24,5.76,6,6,5.76Z" fill="red"/><circle cx="1.6" cy="1.6" r="0.47" fill="red"/><polygon points="0.25 0 0 0.25 0 0.52 0.52 0 0.25 0" fill="red"/><polygon points="1.37 0 0 1.37 0 1.64 1.64 0 1.37 0" fill="red"/><polygon points="4.75 0 0 4.75 0 5.01 5.01 0 4.75 0" fill="red"/></svg>