<svg xmlns="http://www.w3.org/2000/svg" viewBox="0 0 511.68 87.5"><title>logotipo</title><g opacity="0.4"><path d="M424.63,87.5c-7.71,0-18.74-1-28.56-9.26a35.2,35.2,0,0,1-24.33,9.26c-12.09,0-22.37-5.44-28.55-14.09A31.64,31.64,0,0,1,340,77.12a36.39,36.39,0,0,1-49.27,1.5,12.36,12.36,0,0,1-11.27,7.27H267a12.37,12.37,0,0,1-9.91-5,12.34,12.34,0,0,1-9.9,5H234.62a12.37,12.37,0,0,1-12.36-12.36V38.38l-5.07,3.94a12.19,12.19,0,0,1-7.74,2.61v28.6a12.37,12.37,0,0,1-12.36,12.36H184.57a12.36,12.36,0,0,1-12.33-11.47h-7.66a12.36,12.36,0,0,1-12.33,11.47H140.78a12.34,12.34,0,0,1-5.22-1.15,12.26,12.26,0,0,1-5.21,1.15H90.73a12.29,12.29,0,0,1-7.3-2.38,12.31,12.31,0,0,1-7.3,2.38H63.62A12.37,12.37,0,0,1,51.25,73.53V61.7a12.58,12.58,0,0,1-2.23.2H37.4V73.53A12.37,12.37,0,0,1,25,85.89H12.52A12.36,12.36,0,0,1,.16,73.53V13A12.36,12.36,0,0,1,12.52.67H54.23a12.37,12.37,0,0,1,4.69.92,12.46,12.46,0,0,1,4.7-.92H76.13a12.32,12.32,0,0,1,7.3,2.39A12.29,12.29,0,0,1,90.73.67h12.51A12.36,12.36,0,0,1,115.6,13V51.78h12.81V13A12.37,12.37,0,0,1,140.78.67h11.63a12.38,12.38,0,0,1,11.14,7l5,10.27,4.92-10.25a12.37,12.37,0,0,1,11.14-7h12.52a12.27,12.27,0,0,1,6.25,1.7A12.33,12.33,0,0,1,209.6.67h11.47a12.39,12.39,0,0,1,6.78,2,12.34,12.34,0,0,1,6.77-2h12.52a12.32,12.32,0,0,1,9.9,5,12.35,12.35,0,0,1,9.91-5h12.51a12.38,12.38,0,0,1,11.56,8,36.47,36.47,0,0,1,46.84-.23A12.38,12.38,0,0,1,349.32.67h11.47a12.37,12.37,0,0,1,10.95,6.62A12.38,12.38,0,0,1,382.69.67h11.47a12.36,12.36,0,0,1,10.38,5.64c5.68-4,13-6.31,21.48-6.31,9,0,16.34,1.92,22.64,6A12.36,12.36,0,0,1,458.81.67h40.67A12.36,12.36,0,0,1,511.84,13V23.47a12.36,12.36,0,0,1-5.41,10.23,12.39,12.39,0,0,1,1.24,5.41V48.5a12.39,12.39,0,0,1-1.24,5.41,12.36,12.36,0,0,1,5.41,10.23v9.39a12.36,12.36,0,0,1-12.36,12.36H458.81a12.35,12.35,0,0,1-10.42-5.71C442.3,84.83,434.12,87.5,424.63,87.5Zm.62-52.26Zm0-10Z" transform="translate(-0.16)" fill="#fff2f2"/></g><g opacity="0.4"><path d="M424.63,86.55c-7.73,0-18.86-1-28.6-9.6a34.14,34.14,0,0,1-24.29,9.6c-12.27,0-22.63-5.77-28.54-14.82a30.18,30.18,0,0,1-3.87,4.71,35.39,35.39,0,0,1-49,.53,11.42,11.42,0,0,1-10.89,8H267A11.42,11.42,0,0,1,257,79.2a11.4,11.4,0,0,1-9.9,5.74H234.62a11.41,11.41,0,0,1-11.41-11.41V36.43l-6.6,5.14a11.47,11.47,0,0,1-8.11,2.36v29.6a11.41,11.41,0,0,1-11.41,11.41H184.57a11.41,11.41,0,0,1-11.41-11.41v-.08l-.55,0h-8.15c-.27,0-.53,0-.8,0v.09a11.41,11.41,0,0,1-11.41,11.41H140.78a11.33,11.33,0,0,1-5.22-1.26,11.26,11.26,0,0,1-5.21,1.26H90.73a11.35,11.35,0,0,1-7.3-2.64,11.37,11.37,0,0,1-7.3,2.64H63.62A11.41,11.41,0,0,1,52.2,73.53v-13A11.16,11.16,0,0,1,49,61H36.45V73.53A11.41,11.41,0,0,1,25,84.94H12.52A11.41,11.41,0,0,1,1.11,73.53V13A11.41,11.41,0,0,1,12.52,1.62H54.23a11.31,11.31,0,0,1,4.69,1,11.32,11.32,0,0,1,4.7-1H76.13a11.43,11.43,0,0,1,7.3,2.64,11.41,11.41,0,0,1,7.3-2.64h12.51A11.41,11.41,0,0,1,114.65,13V52.73h14.71V13A11.42,11.42,0,0,1,140.78,1.62h11.63a11.43,11.43,0,0,1,10.28,6.45l5.82,12.05,5.78-12a11.42,11.42,0,0,1,10.28-6.47h12.52a11.32,11.32,0,0,1,6.25,1.87,11.38,11.38,0,0,1,6.26-1.87h11.47a11.38,11.38,0,0,1,6.78,2.23,11.35,11.35,0,0,1,6.77-2.23h12.52A11.39,11.39,0,0,1,257,7.37,11.4,11.4,0,0,1,267,1.62h12.51a11.42,11.42,0,0,1,11.09,8.72,35.42,35.42,0,0,1,47.75-.27,11.42,11.42,0,0,1,11-8.45h11.47A11.42,11.42,0,0,1,371.74,9.8a11.44,11.44,0,0,1,10.95-8.18h11.47a11.41,11.41,0,0,1,10.1,6.1C409.9,3.42,417.38,1,426,1c9.17,0,16.6,2,22.92,6.35a11.43,11.43,0,0,1,9.87-5.68h40.67A11.41,11.41,0,0,1,510.89,13V23.47a11.4,11.4,0,0,1-5.72,9.89,11.42,11.42,0,0,1,1.55,5.75V48.5a11.38,11.38,0,0,1-1.55,5.74,11.43,11.43,0,0,1,5.72,9.9v9.39a11.41,11.41,0,0,1-11.41,11.41H458.81a11.4,11.4,0,0,1-10.16-6.21C442.65,83.68,434.34,86.55,424.63,86.55Zm.27-60.42Z" transform="translate(-0.16)" fill="#ffe5e5"/></g><g opacity="0.4"><path d="M424.63,85.6c-8.4,0-19.13-1.17-28.65-10a33.09,33.09,0,0,1-24.24,10c-12.49,0-22.94-6.14-28.52-15.66a29.66,29.66,0,0,1-4.56,5.83,34.43,34.43,0,0,1-48.18,0c-.23-.23-.45-.46-.67-.7A10.47,10.47,0,0,1,279.46,84H267A10.48,10.48,0,0,1,257,76.9a10.47,10.47,0,0,1-9.9,7.09H234.62a10.47,10.47,0,0,1-10.46-10.46v-39L216,40.82a10.41,10.41,0,0,1-8.47,2V73.53A10.47,10.47,0,0,1,197.09,84H184.57a10.46,10.46,0,0,1-10.46-10.46V72.41a10.59,10.59,0,0,1-1.5.11h-8.15a10.17,10.17,0,0,1-1.75-.15v1.16A10.46,10.46,0,0,1,152.25,84H140.78a10.49,10.49,0,0,1-5.22-1.39A10.42,10.42,0,0,1,130.35,84H90.73a10.4,10.4,0,0,1-7.3-3,10.42,10.42,0,0,1-7.3,3H63.62A10.47,10.47,0,0,1,53.15,73.53V59.15A10.31,10.31,0,0,1,49,60H35.5V73.53A10.47,10.47,0,0,1,25,84H12.52A10.46,10.46,0,0,1,2.06,73.53V13A10.46,10.46,0,0,1,12.52,2.58H54.23a10.38,10.38,0,0,1,4.69,1.1,10.42,10.42,0,0,1,4.7-1.1H76.13a10.46,10.46,0,0,1,7.3,3,10.44,10.44,0,0,1,7.3-3h12.51A10.46,10.46,0,0,1,113.7,13V53.68h16.62V13A10.46,10.46,0,0,1,140.78,2.58h11.63a10.44,10.44,0,0,1,9.42,5.91l6.68,13.82,6.63-13.8a10.46,10.46,0,0,1,9.43-5.93h12.52a10.42,10.42,0,0,1,6.25,2.07,10.45,10.45,0,0,1,6.26-2.07h11.47a10.41,10.41,0,0,1,6.78,2.49,10.37,10.37,0,0,1,6.77-2.49h12.52A10.46,10.46,0,0,1,257,9.66,10.47,10.47,0,0,1,267,2.58h12.51a10.46,10.46,0,0,1,10.44,9.75l.59-.6a34.42,34.42,0,0,1,48.17,0h0l.25.26a10.46,10.46,0,0,1,10.41-9.41h11.47A10.46,10.46,0,0,1,371.26,13V53a4.54,4.54,0,0,0,.07.88,5.58,5.58,0,0,0,.82,0,4.43,4.43,0,0,0,.08-.87V13A10.46,10.46,0,0,1,382.69,2.58h11.47a10.46,10.46,0,0,1,9.75,6.66C409.48,4.59,417.12,1.9,426,1.9c9.39,0,16.91,2.18,23.26,6.81a10.47,10.47,0,0,1,9.53-6.13h40.67A10.46,10.46,0,0,1,509.94,13V23.47A10.48,10.48,0,0,1,503.8,33a10.41,10.41,0,0,1,2,6.11V48.5a10.41,10.41,0,0,1-2,6.11,10.46,10.46,0,0,1,6.14,9.53v9.39A10.46,10.46,0,0,1,499.48,84H458.81A10.46,10.46,0,0,1,449,77.15C443.1,82.48,434.63,85.6,424.63,85.6Zm3.24-25.66Zm-113.58-6Zm.31-19.29c-.15,1.59-.27,4.35-.27,9.15s.12,7.57.27,9.15c.16-1.52.3-4.24.3-9.15S314.76,36.12,314.6,34.6Zm132.34-1.3q.72.5,1.41,1.05V31.91Zm-132.07.3Zm109.92-.2Zm-.26-6.4Z" transform="translate(-0.16)" fill="#fcc"/></g><g opacity="0.4"><path d="M424.63,84.65c-8.39,0-19.16-1.19-28.59-10.28-5.72,6.42-14.26,10.28-24.3,10.28-13,0-23.48-6.47-28.58-16.58a27.89,27.89,0,0,1-5.18,7,33.47,33.47,0,0,1-46.82,0A28.86,28.86,0,0,1,289,72.66v.87A9.51,9.51,0,0,1,279.46,83H267a9.51,9.51,0,0,1-9.51-9.51V58h-.79V73.53A9.51,9.51,0,0,1,247.14,83H234.62a9.51,9.51,0,0,1-9.51-9.51v-41l-9.67,7.53a9.52,9.52,0,0,1-8.84,1.52V73.53A9.51,9.51,0,0,1,197.09,83H184.57a9.51,9.51,0,0,1-9.51-9.51V71.24a9.52,9.52,0,0,1-2.45.32h-8.15a9.33,9.33,0,0,1-2.7-.39v2.36A9.51,9.51,0,0,1,152.25,83H140.78a9.51,9.51,0,0,1-5.22-1.56A9.45,9.45,0,0,1,130.35,83H90.73a9.47,9.47,0,0,1-7.3-3.42A9.5,9.5,0,0,1,76.13,83H63.62a9.51,9.51,0,0,1-9.52-9.51v-16A9.47,9.47,0,0,1,49,59.05H34.55V73.53A9.51,9.51,0,0,1,25,83H12.52A9.51,9.51,0,0,1,3,73.53V13a9.51,9.51,0,0,1,9.51-9.51H54.23a9.5,9.5,0,0,1,4.69,1.23,9.57,9.57,0,0,1,4.7-1.23H76.13a9.49,9.49,0,0,1,7.3,3.41,9.46,9.46,0,0,1,7.3-3.41h12.51A9.51,9.51,0,0,1,112.75,13V54.63h17.6c.31,0,.62,0,.92,0V13a9.5,9.5,0,0,1,9.51-9.51h11.63A9.51,9.51,0,0,1,161,8.9l7.53,15.6L176,8.92a9.5,9.5,0,0,1,8.57-5.39h12.52a9.47,9.47,0,0,1,6.25,2.34,9.47,9.47,0,0,1,6.26-2.34h11.47a9.47,9.47,0,0,1,6.78,2.84,9.43,9.43,0,0,1,6.77-2.84h12.52A9.51,9.51,0,0,1,256.65,13V29.6h.79V13A9.51,9.51,0,0,1,267,3.53h12.51A9.51,9.51,0,0,1,289,13v1.8a28.86,28.86,0,0,1,2.19-2.44,33.47,33.47,0,0,1,46.82,0h0c.65.66,1.26,1.32,1.82,2V13a9.51,9.51,0,0,1,9.51-9.51h11.47A9.51,9.51,0,0,1,370.31,13V53a3.39,3.39,0,0,0,.3,1.69,3,3,0,0,0,1.09.15,2.53,2.53,0,0,0,1.19-.2,3.29,3.29,0,0,0,.29-1.64V13a9.51,9.51,0,0,1,9.51-9.51h11.47a9.51,9.51,0,0,1,9.28,7.41c5.48-5.1,13.32-8.09,22.58-8.09,9.67,0,17.3,2.36,23.7,7.39a9.51,9.51,0,0,1,9.09-6.71h40.67A9.51,9.51,0,0,1,509,13V23.47a9.53,9.53,0,0,1-6.77,9.11,9.47,9.47,0,0,1,2.6,6.53V48.5a9.47,9.47,0,0,1-2.6,6.53A9.53,9.53,0,0,1,509,64.14v9.39A9.51,9.51,0,0,1,499.48,83H458.81a9.51,9.51,0,0,1-9.33-7.68C443.72,81.19,435,84.65,424.63,84.65ZM313.93,54.77a2,2,0,0,0,.68.1,1.78,1.78,0,0,0,.6-.08l0,0c.29-.89.6-3.55.6-11s-.31-10.1-.6-11l0,0a1.78,1.78,0,0,0-.6-.08,2,2,0,0,0-.68.1c-.26.94-.55,3.65-.55,11S313.67,53.83,313.93,54.77Zm-.06,0Zm89.8-3.46V52l.44-.36Zm41.76-17.82a23.94,23.94,0,0,1,3.81,2.9l.06.06V29.63Zm-258.21-4,.35.11v-.86Z" transform="translate(-0.16)" fill="#ffb2b2"/></g><g opacity="0.4"><path d="M424.63,83.7c-8.42,0-19.29-1.22-28.64-10.71l0,0c-5.54,6.68-14.1,10.73-24.23,10.73-13.37,0-24-7.06-28.57-17.91a26.82,26.82,0,0,1-5.86,8.64,32.51,32.51,0,0,1-45.48,0A27.35,27.35,0,0,1,288,69.69v3.84a8.56,8.56,0,0,1-8.56,8.56H267a8.56,8.56,0,0,1-8.56-8.56V57.06H255.7V73.53a8.57,8.57,0,0,1-8.56,8.56H234.62a8.57,8.57,0,0,1-8.56-8.56V30.6l-11.2,8.72a8.57,8.57,0,0,1-9,.94l-.19-.1V73.53a8.57,8.57,0,0,1-8.56,8.56H184.57A8.57,8.57,0,0,1,176,73.53V69.91a8.48,8.48,0,0,1-3.4.7h-8.15a8.55,8.55,0,0,1-3.65-.82v3.74a8.56,8.56,0,0,1-8.56,8.56H140.78a8.56,8.56,0,0,1-5.22-1.77,8.51,8.51,0,0,1-5.21,1.77H90.73A8.55,8.55,0,0,1,83.43,78a8.57,8.57,0,0,1-7.3,4.09H63.62a8.56,8.56,0,0,1-8.56-8.56V55.61a8.55,8.55,0,0,1-6,2.49H33.59V73.53A8.56,8.56,0,0,1,25,82.09H12.52A8.56,8.56,0,0,1,4,73.53V13a8.56,8.56,0,0,1,8.56-8.56H54.23a8.46,8.46,0,0,1,4.69,1.4,8.49,8.49,0,0,1,4.7-1.4H76.13a8.56,8.56,0,0,1,7.3,4.08,8.54,8.54,0,0,1,7.3-4.08h12.51A8.56,8.56,0,0,1,111.8,13V55.58h18.55a8.85,8.85,0,0,1,1.87.2V13a8.56,8.56,0,0,1,8.56-8.56h11.63a8.57,8.57,0,0,1,7.71,4.83l8.4,17.38,8.34-17.36a8.54,8.54,0,0,1,7.71-4.85h12.52a8.51,8.51,0,0,1,6.25,2.72,8.51,8.51,0,0,1,6.26-2.72h11.47a8.54,8.54,0,0,1,6.78,3.33,8.52,8.52,0,0,1,6.77-3.33h12.52A8.56,8.56,0,0,1,255.7,13V30.55h2.69V13A8.56,8.56,0,0,1,267,4.48h12.51A8.56,8.56,0,0,1,288,13v4.77a27.35,27.35,0,0,1,3.81-4.73,32.51,32.51,0,0,1,45.48,0h0a27.83,27.83,0,0,1,3.45,4.17V13a8.56,8.56,0,0,1,8.56-8.56h11.47A8.56,8.56,0,0,1,369.35,13V53c0,2.8,1,2.8,2.35,2.8s2.43-.2,2.43-2.8V13a8.56,8.56,0,0,1,8.56-8.56h11.47A8.55,8.55,0,0,1,402.72,13c.58-.63,1.2-1.24,1.84-1.82C410,6.37,417.41,3.8,426,3.8c10.05,0,17.83,2.6,24.3,8.16a8.56,8.56,0,0,1,8.49-7.48h40.67A8.56,8.56,0,0,1,508,13V23.47a8.56,8.56,0,0,1-8,8.54,8.54,8.54,0,0,1,3.79,7.1V48.5a8.56,8.56,0,0,1-3.79,7.1,8.56,8.56,0,0,1,8,8.54v9.39a8.56,8.56,0,0,1-8.56,8.56H458.81a8.56,8.56,0,0,1-8.56-8.56v-.47C444.74,79.7,435.68,83.7,424.63,83.7ZM313.1,55.28l.08.09.09.1a2.07,2.07,0,0,0,1.34.36,1.71,1.71,0,0,0,1.26-.36.94.94,0,0,1,.1-.1l.13-.16c.31-.66.71-3.22.71-11.46s-.4-10.77-.73-11.48l-.11-.13-.1-.11a1.71,1.71,0,0,0-1.26-.36,2.07,2.07,0,0,0-1.34.36l-.09.11-.11.12c-.41.94-.64,4.83-.64,11.49S312.65,54.21,313.1,55.28Zm89.62-6.16v4.34c0,.27,0,.53,0,.8l1.13-1.13a8.39,8.39,0,0,1,1.92-1.44A25.8,25.8,0,0,1,403,49.38l-.09-.1Zm41.13-15.48a23.18,23.18,0,0,1,4.74,3.42,23.92,23.92,0,0,1,1.66,1.76V27.35l-5.91,5.84C444.18,33.35,444,33.5,443.85,33.64ZM53.82,32a8.68,8.68,0,0,1,1.24,1V32c-.28,0-.55,0-.83,0Zm132-1.86c.24,0,.49.08.74.14a9.31,9.31,0,0,1,1.95.73V24.58Zm-36.5-3.82v4.24a6.28,6.28,0,0,1,.87-.27,8.1,8.1,0,0,1,1-.18Zm274.28,2.32Z" transform="translate(-0.16)" fill="#f99"/></g><g opacity="0.4"><path d="M424.63,82.74c-12.23,0-20.86-3.21-28-10.41a8.41,8.41,0,0,1-.73-.87c-5.33,7-13.93,11.28-24.2,11.28-13.92,0-24.79-7.88-28.57-19.73a26,26,0,0,1-6.53,10.74,31.59,31.59,0,0,1-44.14,0,25.76,25.76,0,0,1-5.43-7.88v7.66a7.61,7.61,0,0,1-7.61,7.6H267a7.61,7.61,0,0,1-7.61-7.6V56.1h-4.59V73.53a7.61,7.61,0,0,1-7.61,7.6H234.62a7.6,7.6,0,0,1-7.6-7.6V28.38a7.27,7.27,0,0,1-1.28,1.26l-11.47,8.93a7.6,7.6,0,0,1-8,.83,7.84,7.84,0,0,1-1.57-1V73.53a7.6,7.6,0,0,1-7.6,7.6H184.57a7.61,7.61,0,0,1-7.61-7.6V68.29a7.54,7.54,0,0,1-4.35,1.37h-8.15a7.59,7.59,0,0,1-4.6-1.55v5.42a7.61,7.61,0,0,1-7.61,7.6H140.78a7.61,7.61,0,0,1-5.22-2.06,7.57,7.57,0,0,1-5.21,2.06H90.73a7.61,7.61,0,0,1-7.3-5.45,7.62,7.62,0,0,1-7.3,5.45H63.62A7.6,7.6,0,0,1,56,73.53v-21a7.63,7.63,0,0,1-7,4.6H32.64V73.53A7.6,7.6,0,0,1,25,81.13H12.52a7.61,7.61,0,0,1-7.61-7.6V13a7.61,7.61,0,0,1,7.61-7.61H54.23a7.53,7.53,0,0,1,4.69,1.62,7.58,7.58,0,0,1,4.7-1.62H76.13a7.62,7.62,0,0,1,7.3,5.45,7.61,7.61,0,0,1,7.3-5.45h12.51A7.61,7.61,0,0,1,110.85,13V56.53h19.5a7.53,7.53,0,0,1,2.82.54V13a7.61,7.61,0,0,1,7.61-7.61h11.63a7.61,7.61,0,0,1,6.85,4.3l9.26,19.16,9.2-19.15a7.6,7.6,0,0,1,6.85-4.31h12.52a7.59,7.59,0,0,1,6.25,3.28,7.62,7.62,0,0,1,6.26-3.28h11.47a7.61,7.61,0,0,1,6.78,4.15,7.59,7.59,0,0,1,6.77-4.15h12.52A7.61,7.61,0,0,1,254.75,13V31.5h4.59V13A7.61,7.61,0,0,1,267,5.43h12.51A7.61,7.61,0,0,1,287.07,13v8.59a25.64,25.64,0,0,1,5.43-7.88,31.59,31.59,0,0,1,44.14,0h0a25.91,25.91,0,0,1,5.08,7.08V13a7.61,7.61,0,0,1,7.6-7.61h11.47A7.61,7.61,0,0,1,368.4,13V53c0,3.46,1.56,3.75,3.3,3.75,2.09,0,3.38-.63,3.38-3.75V13a7.61,7.61,0,0,1,7.61-7.61h11.47A7.61,7.61,0,0,1,401.77,13v2.67c5-6.82,13.66-11,24.25-11s18.61,3,25.18,9.29V13a7.61,7.61,0,0,1,7.61-7.61h40.67A7.61,7.61,0,0,1,507.09,13V23.47a7.61,7.61,0,0,1-7.61,7.61H478.93v.42h16.38a7.61,7.61,0,0,1,7.61,7.61V48.5a7.61,7.61,0,0,1-7.61,7.6H478.93v.43h20.55a7.61,7.61,0,0,1,7.61,7.61v9.39a7.61,7.61,0,0,1-7.61,7.6H458.81a7.61,7.61,0,0,1-7.61-7.6v-3.4C446.16,77.93,436.6,82.74,424.63,82.74Zm-6.91-27.22a16.59,16.59,0,0,0,7.08,1.26c.44,0,.83,0,1.19,0l-6.14-.86Q418.76,55.72,417.72,55.52ZM314.61,30.72a2.79,2.79,0,0,0-2.05.68l-.09.1c-.7.77-1,4.44-1,12.25s.3,11.48,1,12.25l.09.1a2.79,2.79,0,0,0,2.05.68,2.57,2.57,0,0,0,2-.68l.08-.1c.57-.62,1.09-2.54,1.09-12.25s-.52-11.63-1.09-12.25l-.08-.1A2.57,2.57,0,0,0,314.61,30.72Zm87.16,15.87v6.87a31.38,31.38,0,0,1-.16,3.24l2.9-2.9a7.57,7.57,0,0,1,3.28-1.93,22.38,22.38,0,0,1-4.15-3.18l-.08-.08A22.68,22.68,0,0,1,401.77,46.59ZM442,33.77a22.72,22.72,0,0,1,5.94,4,21.63,21.63,0,0,1,3.26,3.91V25.07l-7.52,7.44A7.69,7.69,0,0,1,442,33.77ZM32.64,31.5H49a7.61,7.61,0,0,1,7,4.6V30.87a8,8,0,0,1-1.78.21H32.64ZM184.57,31a7.73,7.73,0,0,1,1.78.21,7.55,7.55,0,0,1,3.13,1.58V20.65h-.12l-5,10.38ZM148.39,22.2v9.88a7.41,7.41,0,0,1,2.05-.83,7.31,7.31,0,0,1,2.22-.21Z" transform="translate(-0.16)" fill="#ff8080"/></g><g opacity="0.4"><path d="M424.63,81.79c-12,0-20.37-3.12-27.28-10.13a6.86,6.86,0,0,1-1.34-2c-5.07,7.46-13.77,12.08-24.27,12.08-14.82,0-26.07-9.22-28.56-22.62A25.62,25.62,0,0,1,336,73.08a28.8,28.8,0,0,1-21.36,8.71,29.25,29.25,0,0,1-21.43-8.71,25.17,25.17,0,0,1-7.06-13.31V73.53a6.66,6.66,0,0,1-6.66,6.65H267a6.66,6.66,0,0,1-6.66-6.65V55.15h-6.5V73.53a6.65,6.65,0,0,1-6.65,6.65H234.62A6.65,6.65,0,0,1,228,73.53V13a6.66,6.66,0,0,1,6.65-6.66h12.52A6.66,6.66,0,0,1,253.79,13V32.45h6.5V13A6.66,6.66,0,0,1,267,6.38h12.51A6.66,6.66,0,0,1,286.12,13v14.7a25.16,25.16,0,0,1,7.06-13.32,29.25,29.25,0,0,1,21.43-8.71A28.82,28.82,0,0,1,336,14.42h0a25.23,25.23,0,0,1,6.7,11.65V13a6.66,6.66,0,0,1,6.65-6.66h11.47A6.66,6.66,0,0,1,367.45,13V53c0,4.14,2.15,4.7,4.25,4.7S376,57.19,376,53V13a6.66,6.66,0,0,1,6.66-6.66h11.47A6.66,6.66,0,0,1,400.82,13v6c4.45-8.19,13.6-13.29,25.2-13.29,10.36,0,18.17,2.88,24.56,9.06a6.6,6.6,0,0,1,1.57,2.36V13a6.66,6.66,0,0,1,6.66-6.66h40.67A6.66,6.66,0,0,1,506.14,13V23.47a6.66,6.66,0,0,1-6.66,6.65H478v2.33h17.33A6.66,6.66,0,0,1,502,39.11V48.5a6.65,6.65,0,0,1-6.65,6.65H478v2.33h21.5a6.66,6.66,0,0,1,6.66,6.66v9.39a6.66,6.66,0,0,1-6.66,6.65H458.81a6.66,6.66,0,0,1-6.66-6.65V66.34C448,75.78,437.83,81.79,424.63,81.79ZM400.82,43.45v10a31,31,0,0,1-.56,5.94l4.92-4.92a6.67,6.67,0,0,1,4.71-1.95h0a6.83,6.83,0,0,1,1.91.27A22.93,22.93,0,0,1,404.31,48l-.08-.07A20.56,20.56,0,0,1,400.82,43.45Zm11.93,9.72a6.43,6.43,0,0,1,1.85,1.31c2.19,2.18,5.53,3.25,10.2,3.25,2.81,0,3.95-.54,4.26-.73,0,0,0-.14,0-.24s0-.33,0-.44a11.81,11.81,0,0,0-1.69-.35l-7.38-1A36.61,36.61,0,0,1,412.75,53.17Zm-98.14-23.4a3.69,3.69,0,0,0-2.77,1,.6.6,0,0,1-.08.08c-.8.9-1.24,3.21-1.24,12.89s.44,12,1.24,12.89l.08.08a3.68,3.68,0,0,0,2.77,1,3.5,3.5,0,0,0,2.7-1l.07-.08c.7-.78,1.33-2.35,1.33-12.89s-.63-12.11-1.33-12.89l-.07-.08A3.5,3.5,0,0,0,314.61,29.77Zm124.68,3.92a22.47,22.47,0,0,1,8,4.76,20.72,20.72,0,0,1,4.86,7V22a6.62,6.62,0,0,1-1.51,2.3L443,31.84A6.69,6.69,0,0,1,439.29,33.69ZM271.67,43.8a6.46,6.46,0,0,1,1.13,1.52v-3A6.46,6.46,0,0,1,271.67,43.8Zm-30.39-1.52v3a7.07,7.07,0,0,1,1.13-1.52A7.07,7.07,0,0,1,241.28,42.28Zm224.19,0v3a6.75,6.75,0,0,1,1.13-1.52A6.75,6.75,0,0,1,465.47,42.28ZM431.89,32c.8.11,1.57.23,2.32.38a4.81,4.81,0,0,1-.48-.42c-1.81-1.73-4.07-2.41-8.06-2.41-1,0-2.56.13-2.84.9a5.87,5.87,0,0,0,1.76.5ZM465.47,19.7v.6a4.6,4.6,0,0,1,.37-.6ZM197.09,80.18H184.57a6.65,6.65,0,0,1-6.65-6.65V66.08a6.67,6.67,0,0,1-5.31,2.63h-8.15a6.65,6.65,0,0,1-5.55-3v7.81a6.66,6.66,0,0,1-6.66,6.65H140.78a6.67,6.67,0,0,1-5.22-2.51,6.65,6.65,0,0,1-5.21,2.51H90.73a6.66,6.66,0,0,1-6.66-6.65V13a6.66,6.66,0,0,1,6.66-6.66h12.51A6.66,6.66,0,0,1,109.9,13V57.48h20.45a6.6,6.6,0,0,1,3.77,1.17V13a6.66,6.66,0,0,1,6.66-6.66h11.63a6.66,6.66,0,0,1,6,3.76l10.11,20.94,10-20.93a6.67,6.67,0,0,1,6-3.77h12.52a6.65,6.65,0,0,1,6.25,4.38,6.65,6.65,0,0,1,6.26-4.38h11.47A6.66,6.66,0,0,1,227.73,13v10.6a6.66,6.66,0,0,1-2.57,5.25l-11.47,8.93a6.65,6.65,0,0,1-9.95-2.09v37.8A6.65,6.65,0,0,1,197.09,80.18ZM168.5,55.4h0L169.78,53a6.36,6.36,0,0,1-1.24.12c-.46,0-.89,0-1.32-.13ZM184.57,32a6.92,6.92,0,0,1,1.56.18,6.68,6.68,0,0,1,4.3,3.31V19.7h-1.67l-6,12.54A6.58,6.58,0,0,1,184.57,32ZM147.44,19.7V34a6.64,6.64,0,0,1,6.89-1.73L148.24,19.7ZM76.13,80.18H63.62A6.66,6.66,0,0,1,57,73.53v-44a6.55,6.55,0,0,1-2.73.58H31.69v2.33H49a6.66,6.66,0,0,1,6.65,6.66V49.54A6.66,6.66,0,0,1,49,56.2H31.69V73.53A6.66,6.66,0,0,1,25,80.18H12.52a6.66,6.66,0,0,1-6.66-6.65V13a6.66,6.66,0,0,1,6.66-6.66H54.23a6.65,6.65,0,0,1,4.69,1.93,6.69,6.69,0,0,1,4.7-1.93H76.13A6.66,6.66,0,0,1,82.79,13V73.53A6.66,6.66,0,0,1,76.13,80.18ZM19.18,42.28v4.09a6.76,6.76,0,0,1,1.71-2A6.61,6.61,0,0,1,19.18,42.28Zm0-22.58v.6a4.6,4.6,0,0,1,.37-.6Z" transform="translate(-0.16)" fill="#f66"/></g><g opacity="0.4"><path d="M424.63,80.84c-11.68,0-19.89-3-26.6-9.85a5.68,5.68,0,0,1-1.64-3.72c-4.66,8.31-13.63,13.57-24.65,13.57-16.29,0-28.12-11.51-28.12-27.38V13a5.71,5.71,0,0,1,5.7-5.71h11.47A5.71,5.71,0,0,1,366.5,13V53c0,3.8,1.7,5.65,5.2,5.65S377,56.78,377,53V13a5.71,5.71,0,0,1,5.7-5.71h11.47A5.71,5.71,0,0,1,399.87,13V23.61C403,13.22,412.71,6.66,426,6.66c10.24,0,17.61,2.71,23.9,8.8a5.71,5.71,0,0,1,.05,8.16l-7.63,7.54a5.72,5.72,0,0,1-8,.07c-2.31-2.21-5.15-2.67-8.71-2.67-2.54,0-3.83.71-3.83,2.1a.56.56,0,0,0,.05.29,5.54,5.54,0,0,0,2.57.91l7.3,1c6.56.91,11.29,2.89,14.88,6.25,3.8,3.59,6,8.43,6.47,14.43V13a5.71,5.71,0,0,1,5.7-5.71h40.67a5.71,5.71,0,0,1,5.7,5.71V23.47a5.7,5.7,0,0,1-5.7,5.7H477V33.4h18.28a5.71,5.71,0,0,1,5.7,5.71V48.5a5.7,5.7,0,0,1-5.7,5.7H477v4.23h22.45a5.71,5.71,0,0,1,5.7,5.71v9.39a5.7,5.7,0,0,1-5.7,5.7H458.81a5.7,5.7,0,0,1-5.7-5.7V58.85C451.85,71.92,440.5,80.84,424.63,80.84Zm39.89-13H467a5.67,5.67,0,0,1-1.34-3.68V48.5a5.7,5.7,0,0,1,2.46-4.7,5.68,5.68,0,0,1-2.46-4.69V23.47a5.71,5.71,0,0,1,2.5-4.73h-3.6ZM433.85,44.93a12.2,12.2,0,0,1,3.85,2.44,12.32,12.32,0,0,1,3.73,9.39,12.78,12.78,0,0,1-2,7,11.59,11.59,0,0,0,2.38-7.36c0-4.06-1-7.07-3-8.95A11.06,11.06,0,0,0,433.85,44.93ZM388.4,18.74V53A18,18,0,0,1,385.63,63a16.21,16.21,0,0,0,2.83-9.5V18.74Zm-33.37,0V53.46a16.24,16.24,0,0,0,2.65,9.24A18.21,18.21,0,0,1,355.09,53V18.74Zm44.84,20v14.7a29,29,0,0,1-1.41,9.08l7.4-7.39a5.71,5.71,0,0,1,8.07,0c2.37,2.37,5.93,3.53,10.87,3.53,3.28,0,4.55-.71,4.86-.93s.36-.25.36-1a3,3,0,0,0-.15-1.08c-.16-.14-.6-.38-2.37-.65l-7.39-1c-6.57-1-11.51-3.15-15.14-6.67A20.1,20.1,0,0,1,399.87,38.76Zm12.46-15a12.66,12.66,0,0,0-2.1,7.32c0,4.8,1.56,6.92,2.74,8.1a12.73,12.73,0,0,0,5.76,2.91,14.42,14.42,0,0,1-4.66-2.84,11.58,11.58,0,0,1-3.64-8.6A13.41,13.41,0,0,1,412.33,23.77ZM314.61,80.84a28.35,28.35,0,0,1-20.76-8.43c-7.75-7.75-7.74-17-7.74-27.82V42.91c0-10.77,0-20.07,7.74-27.82a28.35,28.35,0,0,1,20.76-8.43,27.87,27.87,0,0,1,20.68,8.43h0c7.82,7.83,7.82,17.29,7.82,28.23v.86c0,11,0,20.4-7.83,28.23A27.87,27.87,0,0,1,314.61,80.84Zm12-16-.3.34c.31-.28.62-.57.92-.87,4.3-4.3,4.49-9.57,4.49-20.16v-.86c0-10.58-.19-15.86-4.49-20.16-.3-.31-.61-.6-.93-.88l.31.35c3.82,4.27,4.47,9,4.47,21.12S330.42,60.61,326.6,64.87ZM302.84,22.3c-.31.27-.62.56-.92.86-4.22,4.22-4.4,9.39-4.4,19.75V44.6c0,10.35.18,15.52,4.4,19.74.3.3.6.58.91.85-.1-.1-.2-.21-.29-.32-3.78-4.22-4.38-8.76-4.38-21.12s.6-16.9,4.38-21.12Zm11.77,6.52a4.66,4.66,0,0,0-3.49,1.33l-.06.08c-.87,1-1.49,2.5-1.49,13.52s.62,12.56,1.49,13.52l.06.08a4.66,4.66,0,0,0,3.49,1.33A4.38,4.38,0,0,0,318,57.35l.07-.08c.92-1,1.57-2.59,1.57-13.52s-.65-12.5-1.57-13.52l-.07-.08A4.38,4.38,0,0,0,314.61,28.82ZM279.46,79.23H267a5.71,5.71,0,0,1-5.71-5.7V54.2h-8.4V73.53a5.7,5.7,0,0,1-5.7,5.7H234.62a5.7,5.7,0,0,1-5.7-5.7V13a5.71,5.71,0,0,1,5.7-5.71h12.52a5.71,5.71,0,0,1,5.7,5.71V33.4h8.4V13A5.71,5.71,0,0,1,267,7.33h12.51A5.71,5.71,0,0,1,285.17,13V73.53A5.71,5.71,0,0,1,279.46,79.23Zm-6.8-11.41h1.09V18.74h-1.09V39.11a5.7,5.7,0,0,1-2.46,4.69,5.72,5.72,0,0,1,2.46,4.7Zm-32.33,0h1.1V48.5a5.7,5.7,0,0,1,2.46-4.7,5.68,5.68,0,0,1-2.46-4.69V18.74h-1.1ZM197.09,79.23H184.57a5.7,5.7,0,0,1-5.7-5.7V62.35l-1.18,2.3a5.7,5.7,0,0,1-5.08,3.11h-8.15a5.72,5.72,0,0,1-5.06-3.07L158,61.91V73.53a5.7,5.7,0,0,1-5.7,5.7H140.78a5.71,5.71,0,0,1-5.22-3.38,5.71,5.71,0,0,1-5.21,3.38H90.73A5.7,5.7,0,0,1,85,73.53V13a5.71,5.71,0,0,1,5.71-5.71h12.51A5.71,5.71,0,0,1,109,13V58.43h21.4a5.7,5.7,0,0,1,4.72,2.5V13a5.71,5.71,0,0,1,5.71-5.71h11.63a5.7,5.7,0,0,1,5.14,3.23l11,22.71,10.91-22.7a5.71,5.71,0,0,1,5.14-3.24h12.52a5.71,5.71,0,0,1,5.7,5.71V73.53A5.7,5.7,0,0,1,197.09,79.23Zm-6.81-11.41h1.1V18.74h-3.22l-7.61,15.84a5.71,5.71,0,0,1,9.73,4.06Zm-43.8,0h.06V38.64a5.71,5.71,0,0,1,10.2-3.53l-7.91-16.37h-2.35Zm-50,0h2.45a5.68,5.68,0,0,1-1.35-3.68V18.74h-1.1Zm71.49-11.47h1.2l2.68-5.25a5.73,5.73,0,0,1-3.26,1h0A5.71,5.71,0,0,1,165.13,51ZM76.13,79.23H63.62a5.7,5.7,0,0,1-5.71-5.7V27.83a5.67,5.67,0,0,1-3.68,1.34H30.74V33.4H49a5.71,5.71,0,0,1,5.7,5.71V49.54A5.71,5.71,0,0,1,49,55.25H30.74V73.53A5.7,5.7,0,0,1,25,79.23H12.52a5.7,5.7,0,0,1-5.7-5.7V13a5.71,5.71,0,0,1,5.7-5.71H54.23a5.68,5.68,0,0,1,4.69,2.46,5.7,5.7,0,0,1,4.7-2.46H76.13A5.71,5.71,0,0,1,81.83,13V73.53A5.7,5.7,0,0,1,76.13,79.23ZM69.32,67.82h1.1V18.74h-1.1Zm-51.09,0h1.1V49.54a5.71,5.71,0,0,1,3.38-5.22,5.7,5.7,0,0,1-3.38-5.21V23.47a5.71,5.71,0,0,1,2.5-4.73h-3.6ZM209.6,38.27a5.71,5.71,0,0,1-5.71-5.7V13a5.71,5.71,0,0,1,5.71-5.71h11.47a5.71,5.71,0,0,1,5.7,5.71v10.6a5.69,5.69,0,0,1-2.2,4.5L213.1,37.07A5.73,5.73,0,0,1,209.6,38.27Zm5.7-19.53v2.15l.06,0V18.74Z" transform="translate(-0.16)" fill="#ff4c4c"/></g><g opacity="0.4"><path d="M424.63,79.89c-11.41,0-19.4-3-25.93-9.57a4.76,4.76,0,0,1,0-6.7l7.8-7.8a4.77,4.77,0,0,1,6.73,0c2.56,2.56,6.34,3.81,11.54,3.81,6.17,0,6.17-2,6.17-2.87a2.7,2.7,0,0,0-.4-1.73c-.26-.25-.64-.6-2.93-.94l-7.4-1c-6.36-.93-11.13-3-14.61-6.41-3.91-3.9-5.87-9.12-5.87-15.55,0-14,10.55-23.48,26.26-23.48,10,0,17.14,2.63,23.24,8.53a4.76,4.76,0,0,1,0,6.8l-7.63,7.54a4.75,4.75,0,0,1-6.63.06c-2.69-2.57-6.1-2.93-9.37-2.93-2.18,0-4.78.53-4.78,3.05a1.33,1.33,0,0,0,.31.94,6.12,6.12,0,0,0,3.13,1.2l7.29,1c6.37.88,10.93,2.79,14.37,6,4.18,4,6.28,9.52,6.28,16.57C452.27,70.45,441.16,79.89,424.63,79.89Zm-15.5-13.22c4,2.6,8.79,3.71,15.5,3.71,13.37,0,18.13-7.22,18.13-14,0-4.33-1.11-7.58-3.28-9.64-1.3-1.21-3.54-2.73-9.17-3.51h0l-7.29-1a15.3,15.3,0,0,1-8.28-3.66,10.62,10.62,0,0,1-3.34-7.9c0-7.4,5.88-12.56,14.29-12.56a24,24,0,0,1,12.2,2.76l.88-.86c-3.42-2-7.46-2.88-12.73-2.88-10.33,0-16.75,5.35-16.75,14,0,3.92,1,6.71,3,8.78,1.95,1.89,5,3.14,9.3,3.77l7.42,1c3.16.48,5.71,1.23,8,3.39a11.5,11.5,0,0,1,3.43,8.69c0,2.9-1.13,12.38-15.68,12.38-5.74,0-10.6-1.22-14.51-3.63ZM371.74,79.89c-15.74,0-27.17-11.11-27.17-26.43V13a4.76,4.76,0,0,1,4.75-4.76h11.47A4.76,4.76,0,0,1,365.55,13V53c0,3,1.07,6.6,6.15,6.6,4.08,0,6.24-2.28,6.24-6.6V13a4.76,4.76,0,0,1,4.75-4.76h11.47A4.76,4.76,0,0,1,398.92,13V53.46C398.92,68.78,387.49,79.89,371.74,79.89Zm-17.66-62.1V53.46c0,10,7.26,16.92,17.66,16.92s17.67-7,17.67-16.92V17.79h-2V53c0,9.48-6.48,16.11-15.75,16.11S356,62.66,356,53V17.79Zm-39.47,62.1a27.39,27.39,0,0,1-20.09-8.16c-7.47-7.46-7.46-16.58-7.46-27.14V42.91c0-10.56,0-19.67,7.46-27.15a27.42,27.42,0,0,1,20.09-8.15,27,27,0,0,1,20,8.15h0c7.55,7.56,7.55,16.83,7.55,27.56v.86c0,10.74,0,20-7.55,27.56A27,27,0,0,1,314.61,79.89Zm0-62.77a17.77,17.77,0,0,0-13.36,5.37c-4.49,4.48-4.68,9.79-4.68,20.42V44.6c0,10.62.19,15.93,4.68,20.41a19.22,19.22,0,0,0,26.65,0c4.56-4.56,4.76-10,4.76-20.83v-.86c0-10.85-.2-16.27-4.76-20.83A17.7,17.7,0,0,0,314.61,17.12ZM499.48,78.28H458.81a4.75,4.75,0,0,1-4.75-4.75V13a4.76,4.76,0,0,1,4.75-4.76h40.67A4.76,4.76,0,0,1,504.23,13V23.47a4.75,4.75,0,0,1-4.75,4.75h-23.4v6.13h19.23a4.76,4.76,0,0,1,4.75,4.76V48.5a4.75,4.75,0,0,1-4.75,4.75H476.08v6.13h23.4a4.76,4.76,0,0,1,4.75,4.76v9.39A4.75,4.75,0,0,1,499.48,78.28Zm-35.91-9.51h6.67a4.76,4.76,0,0,1-3.67-4.63V48.5a4.76,4.76,0,0,1,4-4.7,4.75,4.75,0,0,1-4-4.69V23.47a4.76,4.76,0,0,1,4.75-4.76h23.4v-.92H463.57ZM279.46,78.28H267a4.76,4.76,0,0,1-4.76-4.75V53.25h-10.3V73.53a4.75,4.75,0,0,1-4.75,4.75H234.62a4.75,4.75,0,0,1-4.75-4.75V13a4.76,4.76,0,0,1,4.75-4.76h12.52A4.76,4.76,0,0,1,251.89,13V34.35h10.3V13A4.76,4.76,0,0,1,267,8.28h12.51A4.76,4.76,0,0,1,284.22,13V73.53A4.76,4.76,0,0,1,279.46,78.28Zm-7.76-9.51h3v-51h-3V39.11a4.75,4.75,0,0,1-4,4.69,4.76,4.76,0,0,1,4,4.7Zm-32.32,0h3V48.5a4.76,4.76,0,0,1,4-4.7,4.75,4.75,0,0,1-4-4.69V17.79h-3Zm-42.29,9.51H184.57a4.75,4.75,0,0,1-4.75-4.75V58.4l-3,5.82a4.77,4.77,0,0,1-4.24,2.59h-8.15a4.75,4.75,0,0,1-4.21-2.56L157,58v15.5a4.75,4.75,0,0,1-4.75,4.75H140.78A4.76,4.76,0,0,1,136,73.53V13a4.76,4.76,0,0,1,4.76-4.76h11.63A4.78,4.78,0,0,1,156.7,11l11.83,24.49L180.29,11a4.75,4.75,0,0,1,4.28-2.7h12.52A4.76,4.76,0,0,1,201.84,13V73.53A4.75,4.75,0,0,1,197.09,78.28Zm-7.76-9.51h3v-51h-4.77L172.82,48.48a4.75,4.75,0,0,1-4.28,2.69h0a4.77,4.77,0,0,1-4.29-2.68l-14.82-30.7h-3.9v51h2V38.64a4.75,4.75,0,0,1,9-2.2L167.35,57.3h2.35l10.64-20.83a4.76,4.76,0,0,1,9,2.17Zm-59,9.51H90.73A4.76,4.76,0,0,1,86,73.53V13a4.76,4.76,0,0,1,4.76-4.76h12.51A4.75,4.75,0,0,1,108,13V59.38h22.36a4.76,4.76,0,0,1,4.76,4.76v9.39A4.76,4.76,0,0,1,130.35,78.28ZM95.48,68.77h6.67a4.76,4.76,0,0,1-3.67-4.63V17.79h-3ZM76.13,78.28H63.62a4.76,4.76,0,0,1-4.76-4.75v-49a4.75,4.75,0,0,1-4.63,3.66H29.79v6.13H49a4.76,4.76,0,0,1,4.75,4.76V49.54A4.75,4.75,0,0,1,49,54.29H29.79V73.53A4.76,4.76,0,0,1,25,78.28H12.52a4.75,4.75,0,0,1-4.75-4.75V13a4.76,4.76,0,0,1,4.75-4.76H54.23a4.75,4.75,0,0,1,4.69,4,4.76,4.76,0,0,1,4.7-4H76.13A4.76,4.76,0,0,1,80.88,13V73.53A4.75,4.75,0,0,1,76.13,78.28Zm-7.76-9.51h3v-51h-3Zm-51.09,0h3V49.54A4.76,4.76,0,0,1,25,44.78H44.26v-.91H25a4.76,4.76,0,0,1-4.75-4.76V23.47A4.76,4.76,0,0,1,25,18.71H49.48v-.92H17.28Zm297.33.37a15,15,0,0,1-11.39-4.93c-3.53-3.93-4.11-8.34-4.11-20.46s.58-16.53,4.17-20.52a15,15,0,0,1,11.33-4.87,14.7,14.7,0,0,1,11.31,4.93c3.58,4,4.2,8.61,4.2,20.46,0,12-.59,16.44-4.26,20.52A14.62,14.62,0,0,1,314.61,69.14Zm0-41.27a5.53,5.53,0,0,0-4.21,1.66c-1.13,1.25-1.78,2.8-1.78,14.22s.65,13,1.73,14.16a5.55,5.55,0,0,0,4.26,1.72A5.33,5.33,0,0,0,318.74,58c1.18-1.31,1.87-2.89,1.87-14.22s-.69-12.9-1.81-14.16A5.38,5.38,0,0,0,314.61,27.87Zm-105,9.45a4.75,4.75,0,0,1-4.76-4.75V13a4.76,4.76,0,0,1,4.76-4.76h11.47A4.76,4.76,0,0,1,225.82,13v10.6A4.75,4.75,0,0,1,224,27.39l-11.47,8.93A4.76,4.76,0,0,1,209.6,37.32Zm4.75-19.53v5.05l2-1.53V17.79Z" transform="translate(-0.16)" fill="#f33"/></g><g opacity="0.4"><path d="M424.63,78.94c-11.13,0-18.92-2.86-25.25-9.28a3.8,3.8,0,0,1,0-5.36l7.8-7.81a3.82,3.82,0,0,1,2.69-1.11h0a3.81,3.81,0,0,1,2.69,1.11c2.75,2.75,6.75,4.09,12.22,4.09,7.12,0,7.12-2.78,7.12-3.82a3.6,3.6,0,0,0-.7-2.43c-.38-.35-.85-.79-3.43-1.18l-7.41-1c-6.15-.9-10.75-2.91-14.09-6.15-3.71-3.71-5.58-8.7-5.58-14.87,0-13.48,10.17-22.53,25.31-22.53,9.7,0,16.67,2.55,22.58,8.27a3.8,3.8,0,0,1,0,5.44L441,29.81a3.79,3.79,0,0,1-5.3,0c-2.94-2.8-6.56-3.19-10-3.19-2.14,0-5.73.52-5.73,4a2.19,2.19,0,0,0,.61,1.64,7,7,0,0,0,3.65,1.44l7.28,1c6.17.85,10.57,2.68,13.86,5.76,4,3.76,6,9.09,6,15.87C451.32,69.89,440.59,78.94,424.63,78.94Zm-17-12.14c4.33,3.19,9.52,4.53,17,4.53,8.8,0,19.08-3.91,19.08-14.92,0-4.61-1.2-8.08-3.58-10.33-2.1-2-5.09-3.13-9.69-3.76h0l-7.28-1a14.33,14.33,0,0,1-7.78-3.41,9.72,9.72,0,0,1-3-7.2c0-5.78,4.13-11.61,13.34-11.61,3.66,0,8.16.39,12.35,3l2.26-2.23c-3.79-2.54-8.26-3.66-14.26-3.66-10.92,0-17.7,5.72-17.7,14.92,0,4.13,1.08,7.23,3.31,9.45,2.11,2,5.34,3.38,9.83,4l7.42,1c3,.45,5.38,1.16,7.53,3.15a10.59,10.59,0,0,1,3.12,8c0,2.68-1.06,11.43-14.73,11.43-6,0-10.79-1.28-14.65-3.88ZM371.74,78.94c-15.19,0-26.22-10.72-26.22-25.48V13a3.81,3.81,0,0,1,3.8-3.81h11.47A3.81,3.81,0,0,1,364.6,13V53c0,4.87,2.52,7.55,7.1,7.55s7.19-2.75,7.19-7.55V13a3.81,3.81,0,0,1,3.8-3.81h11.47A3.82,3.82,0,0,1,398,13V53.46C398,68.22,386.94,78.94,371.74,78.94Zm-18.61-62.1V53.46c0,10.52,7.65,17.87,18.61,17.87S390.36,64,390.36,53.46V16.84H386.5V53c0,9.07-5.95,15.16-14.8,15.16S357,62.1,357,53V16.84Zm-38.52,62.1a26.18,26.18,0,0,1-19.42-7.88C288,63.87,288,55.36,288,44.59V42.91c0-10.77,0-19.28,7.18-26.47a27.77,27.77,0,0,1,38.76,0h0c7.27,7.27,7.27,15.92,7.27,26.88v.86c0,11,0,19.61-7.27,26.88A26.06,26.06,0,0,1,314.61,78.94Zm0-62.77a18.66,18.66,0,0,0-14,5.65c-5,5-4.95,11.37-4.95,21.09V44.6c0,9.71,0,16.12,4.95,21.08a20.17,20.17,0,0,0,28,0c5-5,5-11.59,5-21.5v-.86c0-9.91,0-16.46-5-21.5A18.54,18.54,0,0,0,314.61,16.17ZM499.48,77.33H458.81a3.8,3.8,0,0,1-3.8-3.8V13a3.81,3.81,0,0,1,3.8-3.81h40.67a3.81,3.81,0,0,1,3.8,3.81V23.47a3.8,3.8,0,0,1-3.8,3.8H475.13v8h20.18a3.8,3.8,0,0,1,3.8,3.8V48.5a3.8,3.8,0,0,1-3.8,3.8H475.13v8h24.35a3.8,3.8,0,0,1,3.8,3.8v9.39A3.8,3.8,0,0,1,499.48,77.33Zm-36.86-7.61h33.05V67.94H471.32a3.8,3.8,0,0,1-3.8-3.8V48.5a3.81,3.81,0,0,1,3.8-3.81H491.5V42.91H471.32a3.8,3.8,0,0,1-3.8-3.8V23.47a3.81,3.81,0,0,1,3.8-3.81h24.35V16.84H462.62ZM279.46,77.33H267a3.81,3.81,0,0,1-3.81-3.8V52.3h-12.2V73.53a3.8,3.8,0,0,1-3.8,3.8H234.62a3.8,3.8,0,0,1-3.8-3.8V13a3.81,3.81,0,0,1,3.8-3.81h12.52a3.81,3.81,0,0,1,3.8,3.81V35.31h12.2V13A3.82,3.82,0,0,1,267,9.23h12.51A3.82,3.82,0,0,1,283.27,13V73.53A3.81,3.81,0,0,1,279.46,77.33Zm-8.71-7.61h4.91V16.84h-4.91V39.11a3.8,3.8,0,0,1-3.8,3.8H247.14a3.81,3.81,0,0,1-3.81-3.8V16.84h-4.9V69.72h4.9V48.5a3.82,3.82,0,0,1,3.81-3.81H267a3.81,3.81,0,0,1,3.8,3.81Zm-73.66,7.61H184.57a3.8,3.8,0,0,1-3.8-3.8V54.45L176,63.78a3.8,3.8,0,0,1-3.39,2.08h-8.15a3.81,3.81,0,0,1-3.37-2l-5-9.65V73.53a3.8,3.8,0,0,1-3.8,3.8H140.78a3.81,3.81,0,0,1-3.81-3.8V13a3.82,3.82,0,0,1,3.81-3.81h11.63a3.82,3.82,0,0,1,3.43,2.15l12.69,26.27,12.61-26.26a3.82,3.82,0,0,1,3.43-2.16h12.52a3.81,3.81,0,0,1,3.8,3.81V73.53A3.8,3.8,0,0,1,197.09,77.33Zm-8.71-7.61h4.9V16.84H187L172,48.07a3.82,3.82,0,0,1-3.43,2.15h0a3.81,3.81,0,0,1-3.43-2.15L150,16.84h-5.45V69.72h3.86V38.64a3.8,3.8,0,0,1,7.18-1.76l11.15,21.37h3.51l10.91-21.34a3.8,3.8,0,0,1,7.19,1.73Zm-58,7.61H90.73a3.81,3.81,0,0,1-3.81-3.8V13a3.82,3.82,0,0,1,3.81-3.81h12.51A3.81,3.81,0,0,1,107,13v47.3h23.31a3.8,3.8,0,0,1,3.8,3.8v9.39A3.8,3.8,0,0,1,130.35,77.33ZM94.53,69.72h32V67.94H103.24a3.8,3.8,0,0,1-3.8-3.8V16.84H94.53Zm-18.4,7.61H63.62a3.8,3.8,0,0,1-3.81-3.8V13a3.81,3.81,0,0,1,3.81-3.81H76.13A3.81,3.81,0,0,1,79.93,13V73.53A3.8,3.8,0,0,1,76.13,77.33Zm-8.71-7.61h4.9V16.84h-4.9ZM25,77.33H12.52a3.8,3.8,0,0,1-3.8-3.8V13a3.81,3.81,0,0,1,3.8-3.81H54.23A3.82,3.82,0,0,1,58,13V23.47a3.81,3.81,0,0,1-3.81,3.8H28.84v8H49a3.8,3.8,0,0,1,3.8,3.8V49.54a3.8,3.8,0,0,1-3.8,3.8H28.84V73.53A3.8,3.8,0,0,1,25,77.33Zm-8.7-7.61h4.9V49.54A3.81,3.81,0,0,1,25,45.73H45.21V42.91H25a3.8,3.8,0,0,1-3.8-3.8V23.47A3.81,3.81,0,0,1,25,19.66h25.4V16.84H16.33Zm298.28-1.53a14.07,14.07,0,0,1-10.67-4.6c-3.36-3.74-3.88-7.81-3.88-19.84s.52-16.1,3.93-19.89a14,14,0,0,1,10.62-4.55,13.77,13.77,0,0,1,10.59,4.6c3.42,3.8,4,8.08,4,19.84s-.55,16-4,19.89A13.76,13.76,0,0,1,314.61,68.19Zm0-41.27a6.44,6.44,0,0,0-4.93,2c-1.41,1.57-2,3.43-2,14.84s.6,13.27,2,14.8a6.48,6.48,0,0,0,5,2,6.23,6.23,0,0,0,4.85-2c1.44-1.6,2.1-3.57,2.1-14.84S320.9,30.51,319.5,29A6.3,6.3,0,0,0,314.61,26.92Zm-105,9.45a3.82,3.82,0,0,1-3.81-3.8V13a3.82,3.82,0,0,1,3.81-3.81h11.47a3.81,3.81,0,0,1,3.8,3.81v10.6a3.82,3.82,0,0,1-1.46,3l-11.47,8.93A3.83,3.83,0,0,1,209.6,36.37Zm3.8-19.53v7.94l3.86-3V16.84Z" transform="translate(-0.16)" fill="#ff1919"/></g><g opacity="0.4"><path d="M424.63,78c-11,0-18.35-2.69-24.57-9a2.85,2.85,0,0,1,0-4l7.8-7.8a2.93,2.93,0,0,1,4,0c2.94,2.93,7.15,4.36,12.89,4.36,8.07,0,8.07-3.59,8.07-4.77a4.32,4.32,0,0,0-1-3.12c-.58-.54-1.29-1-3.94-1.43l-7.42-1c-5.94-.87-10.37-2.8-13.56-5.89-3.52-3.52-5.28-8.28-5.28-14.19,0-12.91,9.78-21.58,24.35-21.58,9.44,0,16.2,2.47,21.92,8a2.85,2.85,0,0,1,0,4.08l-7.63,7.54a2.85,2.85,0,0,1-4,0c-3.19-3-7-3.46-10.69-3.46-4.25,0-6.68,1.8-6.68,4.95A3.14,3.14,0,0,0,419.9,33a8,8,0,0,0,4.17,1.69l7.28,1c6,.84,10.16,2.54,13.34,5.51,3.77,3.57,5.68,8.67,5.68,15.18C450.37,69.32,440,78,424.63,78Zm-18.41-11.1c4.66,3.8,10.21,5.39,18.41,5.39,9.24,0,20-4.15,20-15.87,0-4.88-1.3-8.58-3.88-11-2.25-2.11-5.41-3.35-10.21-4h0l-7.28-1A13.4,13.4,0,0,1,416,37.17a8.76,8.76,0,0,1-2.73-6.51c0-5.31,3.83-10.66,12.39-10.66,3.7,0,8.3.42,12.47,3.28l3.61-3.57c-4.14-3.13-9-4.49-15.73-4.49-11.5,0-18.65,6.08-18.65,15.87,0,4.4,1.17,7.71,3.59,10.12,2.27,2.2,5.67,3.62,10.36,4.31l7.43,1c3.35.51,5.31,1.32,7,2.9a9.66,9.66,0,0,1,2.82,7.3c0,3.15-1.34,10.48-13.78,10.48-6.1,0-11-1.37-14.76-4.17ZM371.74,78c-14.64,0-25.27-10.32-25.27-24.53V13a2.86,2.86,0,0,1,2.85-2.86h11.47A2.86,2.86,0,0,1,363.65,13V53c0,5.4,2.93,8.5,8.05,8.5s8.14-3.18,8.14-8.5V13a2.86,2.86,0,0,1,2.85-2.86h11.47A2.86,2.86,0,0,1,397,13V53.46C397,67.67,386.39,78,371.74,78Zm-19.56-62.1V53.46c0,11.08,8,18.82,19.56,18.82s19.57-7.74,19.57-18.82V15.89h-5.76V53c0,8.5-5.57,14.21-13.85,14.21S357.94,61.53,357.94,53V15.89ZM314.61,78a25.25,25.25,0,0,1-18.74-7.6C289,63.48,289,55.14,289,44.59V42.91c0-10.55,0-18.89,6.91-25.8a26.82,26.82,0,0,1,37.41,0h0c7,7,7,15.47,7,26.21v.86c0,10.74,0,19.22-7,26.21A25.17,25.17,0,0,1,314.61,78Zm0-62.77a19.83,19.83,0,0,0-14.71,5.92c-5.24,5.25-5.23,11.82-5.23,21.77V44.6c0,9.94,0,16.52,5.23,21.75a19.8,19.8,0,0,0,14.71,5.93,19.46,19.46,0,0,0,14.63-5.92c5.32-5.33,5.32-12,5.32-22.18v-.86c0-10.15,0-16.85-5.32-22.18A19.46,19.46,0,0,0,314.61,15.22ZM499.48,76.38H458.81A2.86,2.86,0,0,1,456,73.53V13a2.86,2.86,0,0,1,2.85-2.86h40.67A2.86,2.86,0,0,1,502.33,13V23.47a2.86,2.86,0,0,1-2.85,2.85h-25.3v9.94h21.13a2.85,2.85,0,0,1,2.85,2.85V48.5a2.86,2.86,0,0,1-2.85,2.85H474.18v9.94h25.3a2.85,2.85,0,0,1,2.85,2.85v9.39A2.86,2.86,0,0,1,499.48,76.38Zm-37.81-5.71h34.95V67h-25.3a2.85,2.85,0,0,1-2.85-2.85V48.5a2.86,2.86,0,0,1,2.85-2.86h21.13V42H471.32a2.85,2.85,0,0,1-2.85-2.85V23.47a2.86,2.86,0,0,1,2.85-2.86h25.3V15.89H461.67ZM279.46,76.38H267a2.85,2.85,0,0,1-2.85-2.85V51.35H250V73.53a2.86,2.86,0,0,1-2.85,2.85H234.62a2.86,2.86,0,0,1-2.85-2.85V13a2.86,2.86,0,0,1,2.85-2.86h12.52A2.86,2.86,0,0,1,250,13V36.26H264.1V13A2.85,2.85,0,0,1,267,10.18h12.51A2.85,2.85,0,0,1,282.31,13V73.53A2.85,2.85,0,0,1,279.46,76.38Zm-9.66-5.71h6.81V15.89H269.8V39.11A2.85,2.85,0,0,1,267,42H247.14a2.85,2.85,0,0,1-2.86-2.85V15.89h-6.8V70.67h6.8V48.5a2.86,2.86,0,0,1,2.86-2.86H267a2.86,2.86,0,0,1,2.85,2.86Zm-72.71,5.71H184.57a2.86,2.86,0,0,1-2.85-2.85v-23l-6.57,12.86a2.85,2.85,0,0,1-2.54,1.56h-8.15a2.85,2.85,0,0,1-2.53-1.54L155.1,50.28V73.53a2.86,2.86,0,0,1-2.85,2.85H140.78a2.86,2.86,0,0,1-2.86-2.85V13a2.86,2.86,0,0,1,2.86-2.86h11.63A2.84,2.84,0,0,1,155,11.8l13.55,28L182,11.8a2.86,2.86,0,0,1,2.57-1.62h12.52A2.86,2.86,0,0,1,199.94,13V73.53A2.86,2.86,0,0,1,197.09,76.38Zm-9.66-5.71h6.8V15.89h-7.86L171.11,47.65a2.85,2.85,0,0,1-2.57,1.62h0A2.83,2.83,0,0,1,166,47.66L150.62,15.89h-7V70.67h5.76v-32a2.86,2.86,0,0,1,5.39-1.32L166.19,59.2h4.67L182,37.34a2.86,2.86,0,0,1,5.4,1.3Zm-57.08,5.71H90.73a2.86,2.86,0,0,1-2.86-2.85V13a2.86,2.86,0,0,1,2.86-2.86h12.51A2.85,2.85,0,0,1,106.09,13V61.29h24.26a2.84,2.84,0,0,1,2.85,2.85v9.39A2.85,2.85,0,0,1,130.35,76.38ZM93.58,70.67H127.5V67H103.24a2.84,2.84,0,0,1-2.85-2.85V15.89H93.58ZM76.13,76.38H63.62a2.86,2.86,0,0,1-2.86-2.85V13a2.86,2.86,0,0,1,2.86-2.86H76.13A2.86,2.86,0,0,1,79,13V73.53A2.86,2.86,0,0,1,76.13,76.38Zm-9.66-5.71h6.81V15.89H66.47ZM25,76.38H12.52a2.86,2.86,0,0,1-2.85-2.85V13a2.86,2.86,0,0,1,2.85-2.86H54.23A2.85,2.85,0,0,1,57.08,13V23.47a2.85,2.85,0,0,1-2.85,2.85H27.89v9.94H49a2.85,2.85,0,0,1,2.85,2.85V49.54A2.86,2.86,0,0,1,49,52.39H27.89V73.53A2.86,2.86,0,0,1,25,76.38Zm-9.65-5.71h6.8V49.54A2.85,2.85,0,0,1,25,46.69H46.16V42H25a2.85,2.85,0,0,1-2.85-2.85V23.47A2.86,2.86,0,0,1,25,20.61H51.38V15.89h-36Zm299.23-3.43A13.07,13.07,0,0,1,304.66,63C301.5,59.45,301,55.49,301,43.75s.49-15.7,3.68-19.25a13.07,13.07,0,0,1,9.92-4.24,12.79,12.79,0,0,1,9.87,4.28c3,3.36,3.74,7,3.74,19.21S327.51,59.6,324.45,63A12.79,12.79,0,0,1,314.61,67.24Zm0-41.27A7.37,7.37,0,0,0,309,28.28c-1.61,1.79-2.25,3.67-2.25,15.47s.64,13.68,2.21,15.43a7.41,7.41,0,0,0,5.68,2.35,7.22,7.22,0,0,0,5.57-2.31c1.63-1.82,2.33-3.81,2.33-15.47s-.7-13.65-2.3-15.43A7.22,7.22,0,0,0,314.61,26Zm-105,9.45a2.85,2.85,0,0,1-2.85-2.85V13a2.85,2.85,0,0,1,2.85-2.86h11.47A2.86,2.86,0,0,1,223.92,13v10.6a2.83,2.83,0,0,1-1.1,2.25l-11.47,8.93A2.9,2.9,0,0,1,209.6,35.42Zm2.85-19.53V26.73l5.77-4.49V15.89Z" transform="translate(-0.16)" fill="#ffb2b2"/></g><g opacity="0.4"><path d="M424.63,77c-10.73,0-17.87-2.61-23.89-8.72a1.9,1.9,0,0,1,0-2.68l7.8-7.8a2,2,0,0,1,2.69,0c3.12,3.12,7.56,4.64,13.56,4.64s9-1.92,9-5.72a5.22,5.22,0,0,0-1.3-3.82c-.84-.77-1.79-1.27-4.45-1.67l-7.43-1c-5.73-.85-10-2.69-13-5.63-3.33-3.33-5-7.86-5-13.51,0-12.34,9.4-20.63,23.4-20.63,9.17,0,15.73,2.39,21.26,7.73a1.94,1.94,0,0,1,.58,1.36,1.89,1.89,0,0,1-.57,1.36l-7.63,7.55a1.91,1.91,0,0,1-2.65,0c-3.43-3.28-7.66-3.72-11.34-3.72-4.78,0-7.63,2.2-7.63,5.9a4.11,4.11,0,0,0,1.21,3,8.76,8.76,0,0,0,4.69,1.93l7.29,1.05c5.83.8,9.78,2.43,12.81,5.26,3.57,3.38,5.38,8.25,5.38,14.48C449.42,68.75,439.46,77,424.63,77ZM404.82,67c5,4.39,11,6.28,19.81,6.28,12.75,0,21-6.6,21-16.82,0-5.15-1.4-9.09-4.17-11.71-2.41-2.26-5.73-3.57-10.74-4.27h0l-7.28-1a12.44,12.44,0,0,1-6.75-2.92,7.8,7.8,0,0,1-2.43-5.81c0-4.83,3.54-9.71,11.44-9.71,3.74,0,8.44.44,12.56,3.57l4.95-4.89c-4.5-3.74-9.75-5.36-17.16-5.36-11.91,0-19.6,6.6-19.6,16.82,0,4.66,1.26,8.2,3.86,10.79,2.43,2.36,6,3.86,10.9,4.58l7.44,1c3.17.48,4.92,1.2,6.49,2.66a8.73,8.73,0,0,1,2.52,6.6c0,2.86-1.25,9.53-12.83,9.53-6.24,0-11.11-1.47-14.84-4.49ZM371.74,77c-14.09,0-24.32-9.92-24.32-23.58V13a1.9,1.9,0,0,1,1.9-1.9h11.47A1.9,1.9,0,0,1,362.7,13V53c0,5.92,3.36,9.45,9,9.45s9.09-3.62,9.09-9.45V13a1.9,1.9,0,0,1,1.9-1.9h11.47a1.9,1.9,0,0,1,1.9,1.9V53.46C396.06,67.12,385.84,77,371.74,77Zm-20.51-62.1V53.46c0,11.64,8.43,19.77,20.51,19.77s20.52-8.13,20.52-19.77V14.94h-7.67V53c0,7.93-5.18,13.26-12.89,13.26S358.89,61,358.89,53V14.94ZM314.61,77a24.36,24.36,0,0,1-18.07-7.32c-6.63-6.64-6.63-14.8-6.63-25.13V42.91c0-10.33,0-18.49,6.63-25.13a25.86,25.86,0,0,1,36.06,0h0c6.72,6.72,6.72,15,6.72,25.54v.86c0,10.52,0,18.82-6.72,25.54A24.24,24.24,0,0,1,314.61,77Zm0-62.77a20.72,20.72,0,0,0-15.38,6.2c-5.52,5.52-5.52,12.25-5.51,22.44V44.6c0,10.18,0,16.91,5.51,22.43a20.72,20.72,0,0,0,15.38,6.2,20.35,20.35,0,0,0,15.3-6.2c5.6-5.6,5.6-12.46,5.6-22.85v-.86c0-10.39,0-17.25-5.6-22.85A20.35,20.35,0,0,0,314.61,14.27ZM499.48,75.43H458.81a1.9,1.9,0,0,1-1.9-1.9V13a1.9,1.9,0,0,1,1.9-1.9h40.67a1.9,1.9,0,0,1,1.9,1.9V23.47a1.9,1.9,0,0,1-1.9,1.9H473.23V37.21h22.08a1.9,1.9,0,0,1,1.9,1.9V48.5a1.9,1.9,0,0,1-1.9,1.9H473.23V62.24h26.25a1.9,1.9,0,0,1,1.9,1.9v9.39A1.9,1.9,0,0,1,499.48,75.43Zm-38.77-3.81h36.87V66H471.32a1.9,1.9,0,0,1-1.9-1.9V48.5a1.91,1.91,0,0,1,1.9-1.91H493.4V41H471.32a1.9,1.9,0,0,1-1.9-1.9V23.47a1.91,1.91,0,0,1,1.9-1.91h26.26V14.94H460.71ZM279.46,75.43H267a1.9,1.9,0,0,1-1.9-1.9V50.4H249V73.53a1.9,1.9,0,0,1-1.9,1.9H234.62a1.9,1.9,0,0,1-1.9-1.9V13a1.9,1.9,0,0,1,1.9-1.9h12.52A1.9,1.9,0,0,1,249,13V37.21h16V13a1.9,1.9,0,0,1,1.9-1.9h12.51a1.9,1.9,0,0,1,1.9,1.9V73.53A1.9,1.9,0,0,1,279.46,75.43Zm-10.61-3.81h8.71V14.94h-8.71V39.11A1.9,1.9,0,0,1,267,41H247.14a1.91,1.91,0,0,1-1.91-1.9V14.94h-8.7V71.62h8.7V48.5a1.92,1.92,0,0,1,1.91-1.91H267a1.91,1.91,0,0,1,1.9,1.91Zm-71.76,3.81H184.57a1.9,1.9,0,0,1-1.9-1.9v-27l-8.36,16.38a1.91,1.91,0,0,1-1.7,1h-8.15a1.89,1.89,0,0,1-1.68-1L154.15,46.4V73.53a1.9,1.9,0,0,1-1.9,1.9H140.78a1.9,1.9,0,0,1-1.9-1.9V13a1.9,1.9,0,0,1,1.9-1.9h11.63a1.91,1.91,0,0,1,1.72,1.07L168.53,42l14.33-29.83a1.89,1.89,0,0,1,1.71-1.07h12.52A1.9,1.9,0,0,1,199,13V73.53A1.9,1.9,0,0,1,197.09,75.43Zm-10.62-3.81h8.71V14.94h-9.41l-15.52,32.3a1.9,1.9,0,0,1-1.71,1.08h0a1.92,1.92,0,0,1-1.72-1.07l-15.6-32.31h-8.54V71.62h7.67v-33a1.9,1.9,0,0,1,3.58-.88l11.69,22.39h5.83l11.43-22.38a1.9,1.9,0,0,1,3.59.87Zm-56.12,3.81H90.73a1.91,1.91,0,0,1-1.91-1.9V13a1.91,1.91,0,0,1,1.91-1.9h12.51a1.9,1.9,0,0,1,1.9,1.9v49.2h25.21a1.9,1.9,0,0,1,1.9,1.9v9.39A1.9,1.9,0,0,1,130.35,75.43ZM92.63,71.62h35.82V66H103.24a1.9,1.9,0,0,1-1.9-1.9V14.94H92.63Zm-16.5,3.81H63.62a1.91,1.91,0,0,1-1.91-1.9V13a1.91,1.91,0,0,1,1.91-1.9H76.13A1.9,1.9,0,0,1,78,13V73.53A1.9,1.9,0,0,1,76.13,75.43ZM65.52,71.62h8.71V14.94H65.52ZM25,75.43H12.52a1.9,1.9,0,0,1-1.9-1.9V13a1.9,1.9,0,0,1,1.9-1.9H54.23a1.9,1.9,0,0,1,1.9,1.9V23.47a1.9,1.9,0,0,1-1.9,1.9H26.94V37.21H49a1.9,1.9,0,0,1,1.9,1.9V49.54a1.9,1.9,0,0,1-1.9,1.9H26.94V73.53A1.91,1.91,0,0,1,25,75.43ZM14.42,71.62h8.71V49.54a1.9,1.9,0,0,1,1.9-1.9H47.12V41H25a1.9,1.9,0,0,1-1.9-1.9V23.47A1.91,1.91,0,0,1,25,21.56h27.3V14.94H14.42Zm300.19-5.33a12.13,12.13,0,0,1-9.23-4c-2.81-3.12-3.42-6.42-3.42-18.59s.61-15.47,3.44-18.61a12.11,12.11,0,0,1,9.21-3.93,11.92,11.92,0,0,1,9.16,3.95c2.84,3.16,3.5,6.64,3.5,18.59s-.66,15.43-3.53,18.61A11.86,11.86,0,0,1,314.61,66.29Zm0-41.27a8.34,8.34,0,0,0-6.36,2.64c-1.9,2.11-2.48,4.59-2.48,16.09s.58,14,2.46,16.07a8.36,8.36,0,0,0,6.38,2.66,8.1,8.1,0,0,0,6.28-2.64c1.8-2,2.57-4.1,2.57-16.09s-.77-14.1-2.54-16.07A8.19,8.19,0,0,0,314.61,25Zm-105,9.45a1.92,1.92,0,0,1-.84-.2,1.88,1.88,0,0,1-1.06-1.7V13a1.9,1.9,0,0,1,1.9-1.9h11.47A1.9,1.9,0,0,1,223,13v10.6a1.91,1.91,0,0,1-.73,1.5l-11.47,8.93A2,2,0,0,1,209.6,34.47Zm1.9-19.53V28.67l7.67-6V14.94Z" transform="translate(-0.16)" fill="red"/></g><path d="M424.63,76.09c-10.45,0-17.39-2.53-23.22-8.44a1,1,0,0,1,0-1.34l7.8-7.8a1,1,0,0,1,1.35,0c3.31,3.31,8,4.92,14.23,4.92,4.55,0,10-1.15,10-6.67a6,6,0,0,0-1.6-4.51c-.95-.89-2.07-1.49-5-1.92l-7.44-1c-5.52-.82-9.6-2.57-12.49-5.38-3.18-3.17-4.71-7.36-4.71-12.82,0-11.77,9-19.68,22.45-19.68,8.91,0,15.26,2.31,20.6,7.47a.94.94,0,0,1,0,1.36L439,27.78a1,1,0,0,1-1.33,0c-3.68-3.51-8.13-4-12-4-5.29,0-8.58,2.62-8.58,6.85a5,5,0,0,0,1.51,3.72,9.75,9.75,0,0,0,5.21,2.19l7.28,1c5.63.78,9.43,2.32,12.31,5,3.36,3.19,5.07,7.83,5.07,13.79C448.47,68.18,438.89,76.09,424.63,76.09ZM403.44,67c5.3,5,11.71,7.2,21.19,7.2,13.32,0,21.93-7,21.93-17.77,0-5.42-1.5-9.59-4.47-12.4-2.57-2.4-6-3.8-11.26-4.52h0l-7.28-1a11.48,11.48,0,0,1-6.23-2.67,6.9,6.9,0,0,1-2.13-5.12c0-4,2.75-8.76,10.49-8.76,4,0,8.62.48,12.63,3.9l6.28-6.22c-4.85-4.38-10.47-6.26-18.56-6.26-12.48,0-20.55,7-20.55,17.77,0,4.93,1.35,8.68,4.14,11.47,2.59,2.5,6.33,4.09,11.43,4.84l7.45,1c2.95.45,4.56,1.1,6,2.42a7.83,7.83,0,0,1,2.21,5.9c0,3.2-1.55,8.58-11.88,8.58-6.38,0-11.26-1.58-14.89-4.83Zm-31.7,9.11c-13.54,0-23.37-9.52-23.37-22.63V13a1,1,0,0,1,.95-.95h11.47a1,1,0,0,1,1,.95V53c0,6.42,3.81,10.4,9.95,10.4s10-4,10-10.4V13a1,1,0,0,1,.95-.95h11.47a.94.94,0,0,1,.95.95V53.46C395.11,66.57,385.28,76.09,371.74,76.09ZM350.28,14V53.46c0,12.2,8.82,20.72,21.46,20.72s21.47-8.52,21.47-20.72V14h-9.57V53c0,7.47-4.69,12.31-11.94,12.31S359.84,60.5,359.84,53V14Zm-35.67,62.1a23.44,23.44,0,0,1-17.4-7c-6.35-6.35-6.35-13.94-6.34-24.45V42.91c0-10.51,0-18.1,6.34-24.46a24.92,24.92,0,0,1,34.72,0h0c6.44,6.44,6.44,14.17,6.44,24.87v.86c0,10.7,0,18.43-6.44,24.86A23.32,23.32,0,0,1,314.61,76.09Zm0-62.77a21.61,21.61,0,0,0-16.05,6.48c-5.8,5.8-5.8,13.06-5.79,23.11v1.68c0,10,0,17.31,5.79,23.11a21.61,21.61,0,0,0,16.05,6.48,21.28,21.28,0,0,0,16-6.48c5.88-5.88,5.87-13.28,5.87-23.52v-.86c0-10.24,0-17.64-5.87-23.52A21.28,21.28,0,0,0,314.61,13.32ZM499.48,74.48H458.81a1,1,0,0,1-.95-1V13a1,1,0,0,1,.95-.95h40.67a1,1,0,0,1,.95.95V23.47a1,1,0,0,1-.95,1h-27.2V38.16h23a1,1,0,0,1,.95,1V48.5a1,1,0,0,1-.95,1h-23V63.19h27.2a1,1,0,0,1,.95,1v9.39A1,1,0,0,1,499.48,74.48Zm-39.72-1.91h38.77V65.09H471.32a1,1,0,0,1-.95-1V48.5a1,1,0,0,1,.95-1h23V40.06h-23a1,1,0,0,1-.95-1V23.47a1,1,0,0,1,.95-.95h27.21V14H459.76Zm-180.3,1.91H267a1,1,0,0,1-.95-1V49.45H248.09V73.53a1,1,0,0,1-1,1H234.62a1,1,0,0,1-1-1V13a1,1,0,0,1,1-.95h12.52a1,1,0,0,1,1,.95V38.16H266V13a.94.94,0,0,1,.95-.95h12.51a.94.94,0,0,1,1,.95V73.53A1,1,0,0,1,279.46,74.48ZM267.9,72.57h10.61V14H267.9V39.11a1,1,0,0,1-.95,1H247.14a.94.94,0,0,1-.95-1V14H235.57V72.57h10.62V48.5a.94.94,0,0,1,.95-1H267a1,1,0,0,1,.95,1Zm-70.81,1.91H184.57a1,1,0,0,1-.95-1V42.59l-10.16,19.9a1,1,0,0,1-.85.51h-8.15a.93.93,0,0,1-.84-.51l-10.42-20v31a1,1,0,0,1-.95,1H140.78a1,1,0,0,1-.95-1V13a.94.94,0,0,1,.95-.95h11.63a1,1,0,0,1,.86.53l15.26,31.61,15.19-31.6a.94.94,0,0,1,.85-.54h12.52A1,1,0,0,1,198,13V73.53A1,1,0,0,1,197.09,74.48Zm-11.57-1.91h10.61V14h-11L169.39,46.83a.94.94,0,0,1-.85.54h0a1,1,0,0,1-.86-.54L151.82,14H141.73V72.57h9.57V38.64a.95.95,0,0,1,1.79-.44L165,61.1h7l11.7-22.9a.95.95,0,0,1,1.79.44Zm-55.17,1.91H90.73a1,1,0,0,1-1-1V13a.94.94,0,0,1,1-.95h12.51a1,1,0,0,1,1,.95V63.19h26.16a.94.94,0,0,1,1,1v9.39A1,1,0,0,1,130.35,74.48ZM91.68,72.57H129.4V65.09H103.24a.94.94,0,0,1-.95-1V14H91.68ZM76.13,74.48H63.62a1,1,0,0,1-1-1V13a1,1,0,0,1,1-.95H76.13a1,1,0,0,1,1,.95V73.53A1,1,0,0,1,76.13,74.48ZM64.57,72.57H75.18V14H64.57ZM25,74.48H12.52a1,1,0,0,1-.95-1V13a1,1,0,0,1,.95-.95H54.23a.94.94,0,0,1,1,.95V23.47a1,1,0,0,1-1,1H26V38.16H49a1,1,0,0,1,.95,1V49.54a1,1,0,0,1-.95,1H26v23A1,1,0,0,1,25,74.48ZM13.47,72.57H24.08v-23a1,1,0,0,1,1-.95h23V40.06H25a1,1,0,0,1-1-1V23.47a1,1,0,0,1,1-.95H53.28V14H13.47Zm301.14-7.23a11.15,11.15,0,0,1-8.51-3.63c-2.62-2.9-3.19-6.09-3.19-18s.57-15.06,3.2-18a11.16,11.16,0,0,1,8.5-3.61,10.94,10.94,0,0,1,8.44,3.63c2.65,2.95,3.27,6.31,3.27,18s-.62,15-3.28,18A11,11,0,0,1,314.61,65.34Zm0-41.27a9.3,9.3,0,0,0-7.08,3c-2.07,2.31-2.71,4.91-2.71,16.72s.64,14.41,2.7,16.7a9.28,9.28,0,0,0,7.09,3,9.07,9.07,0,0,0,7-3c2.14-2.38,2.8-5,2.8-16.72s-.66-14.34-2.79-16.7A9.05,9.05,0,0,0,314.61,24.07Zm-105,9.45a1,1,0,0,1-.42-.1.94.94,0,0,1-.53-.85V13a.94.94,0,0,1,.95-.95h11.47a1,1,0,0,1,1,.95v10.6a1,1,0,0,1-.37.75l-11.47,8.93A1,1,0,0,1,209.6,33.52Zm1-19.53V30.62l9.57-7.45V14Z" transform="translate(-0.16)" fill="#f99"/></svg>